<svg width="140" height="40" viewBox="0 0 140 40" fill="none" xmlns="http://www.w3.org/2000/svg">
<rect x="0.5" y="0.5" width="139" height="39" rx="4.5" stroke="black"/>
<path d="M48.123 22.7656C48.123 22.4668 48.0762 22.2031 47.9824 21.9746C47.8945 21.7402 47.7363 21.5293 47.5078 21.3418C47.2852 21.1543 46.9746 20.9756 46.5762 20.8057C46.1836 20.6357 45.6855 20.4629 45.082 20.2871C44.4492 20.0996 43.8779 19.8916 43.3682 19.6631C42.8584 19.4287 42.4219 19.1621 42.0586 18.8633C41.6953 18.5645 41.417 18.2217 41.2236 17.835C41.0303 17.4482 40.9336 17.0059 40.9336 16.5078C40.9336 16.0098 41.0361 15.5498 41.2412 15.1279C41.4463 14.7061 41.7393 14.3398 42.1201 14.0293C42.5068 13.7129 42.9668 13.4668 43.5 13.291C44.0332 13.1152 44.6279 13.0273 45.2842 13.0273C46.2451 13.0273 47.0596 13.2119 47.7275 13.5811C48.4014 13.9443 48.9141 14.4219 49.2656 15.0137C49.6172 15.5996 49.793 16.2266 49.793 16.8945H48.1055C48.1055 16.4141 48.0029 15.9893 47.7979 15.6201C47.5928 15.2451 47.2822 14.9521 46.8662 14.7412C46.4502 14.5244 45.9229 14.416 45.2842 14.416C44.6807 14.416 44.1826 14.5068 43.79 14.6885C43.3975 14.8701 43.1045 15.1162 42.9111 15.4268C42.7236 15.7373 42.6299 16.0918 42.6299 16.4902C42.6299 16.7598 42.6855 17.0059 42.7969 17.2285C42.9141 17.4453 43.0928 17.6475 43.333 17.835C43.5791 18.0225 43.8896 18.1953 44.2646 18.3535C44.6455 18.5117 45.0996 18.6641 45.627 18.8105C46.3535 19.0156 46.9805 19.2441 47.5078 19.4961C48.0352 19.748 48.4688 20.0322 48.8086 20.3486C49.1543 20.6592 49.4092 21.0137 49.5732 21.4121C49.7432 21.8047 49.8281 22.25 49.8281 22.748C49.8281 23.2695 49.7227 23.7412 49.5117 24.1631C49.3008 24.585 48.999 24.9453 48.6064 25.2441C48.2139 25.543 47.7422 25.7744 47.1914 25.9385C46.6465 26.0967 46.0371 26.1758 45.3633 26.1758C44.7715 26.1758 44.1885 26.0938 43.6143 25.9297C43.0459 25.7656 42.5273 25.5195 42.0586 25.1914C41.5957 24.8633 41.2236 24.459 40.9424 23.9785C40.667 23.4922 40.5293 22.9297 40.5293 22.291H42.2168C42.2168 22.7305 42.3018 23.1084 42.4717 23.4248C42.6416 23.7354 42.873 23.9932 43.166 24.1982C43.4648 24.4033 43.8018 24.5557 44.1768 24.6553C44.5576 24.749 44.9531 24.7959 45.3633 24.7959C45.9551 24.7959 46.4561 24.7139 46.8662 24.5498C47.2764 24.3857 47.5869 24.1514 47.7979 23.8467C48.0146 23.542 48.123 23.1816 48.123 22.7656ZM53.5107 16.4902V26H51.876V16.4902H53.5107ZM51.7529 13.9678C51.7529 13.7041 51.832 13.4814 51.9902 13.2998C52.1543 13.1182 52.3945 13.0273 52.7109 13.0273C53.0215 13.0273 53.2588 13.1182 53.4229 13.2998C53.5928 13.4814 53.6777 13.7041 53.6777 13.9678C53.6777 14.2197 53.5928 14.4365 53.4229 14.6182C53.2588 14.7939 53.0215 14.8818 52.7109 14.8818C52.3945 14.8818 52.1543 14.7939 51.9902 14.6182C51.832 14.4365 51.7529 14.2197 51.7529 13.9678ZM62.2822 16.4902H63.7588V25.7979C63.7588 26.6357 63.5889 27.3506 63.249 27.9424C62.9092 28.5342 62.4346 28.9824 61.8252 29.2871C61.2217 29.5977 60.5244 29.7529 59.7334 29.7529C59.4053 29.7529 59.0186 29.7002 58.5732 29.5947C58.1338 29.4951 57.7002 29.3223 57.2725 29.0762C56.8506 28.8359 56.4961 28.5107 56.209 28.1006L57.0615 27.1338C57.46 27.6143 57.876 27.9482 58.3096 28.1357C58.749 28.3232 59.1826 28.417 59.6104 28.417C60.126 28.417 60.5713 28.3203 60.9463 28.127C61.3213 27.9336 61.6113 27.6465 61.8164 27.2656C62.0273 26.8906 62.1328 26.4277 62.1328 25.877V18.582L62.2822 16.4902ZM55.7344 21.3506V21.166C55.7344 20.4395 55.8193 19.7803 55.9893 19.1885C56.165 18.5908 56.4141 18.0781 56.7363 17.6504C57.0645 17.2227 57.46 16.8945 57.9229 16.666C58.3857 16.4316 58.9072 16.3145 59.4873 16.3145C60.085 16.3145 60.6064 16.4199 61.0518 16.6309C61.5029 16.8359 61.8838 17.1377 62.1943 17.5361C62.5107 17.9287 62.7598 18.4033 62.9414 18.96C63.123 19.5166 63.249 20.1465 63.3193 20.8496V21.6582C63.2549 22.3555 63.1289 22.9824 62.9414 23.5391C62.7598 24.0957 62.5107 24.5703 62.1943 24.9629C61.8838 25.3555 61.5029 25.6572 61.0518 25.8682C60.6006 26.0732 60.0732 26.1758 59.4697 26.1758C58.9014 26.1758 58.3857 26.0557 57.9229 25.8154C57.4658 25.5752 57.0732 25.2383 56.7451 24.8047C56.417 24.3711 56.165 23.8613 55.9893 23.2754C55.8193 22.6836 55.7344 22.042 55.7344 21.3506ZM57.3604 21.166V21.3506C57.3604 21.8252 57.4072 22.2705 57.501 22.6865C57.6006 23.1025 57.75 23.4688 57.9492 23.7852C58.1543 24.1016 58.415 24.3506 58.7314 24.5322C59.0479 24.708 59.4258 24.7959 59.8652 24.7959C60.4043 24.7959 60.8496 24.6816 61.2012 24.4531C61.5527 24.2246 61.8311 23.9229 62.0361 23.5479C62.2471 23.1729 62.4111 22.7656 62.5283 22.3262V20.208C62.4639 19.8857 62.3643 19.5752 62.2295 19.2764C62.1006 18.9717 61.9307 18.7021 61.7197 18.4678C61.5146 18.2275 61.2598 18.0371 60.9551 17.8965C60.6504 17.7559 60.293 17.6855 59.8828 17.6855C59.4375 17.6855 59.0537 17.7793 58.7314 17.9668C58.415 18.1484 58.1543 18.4004 57.9492 18.7227C57.75 19.0391 57.6006 19.4082 57.501 19.8301C57.4072 20.2461 57.3604 20.6914 57.3604 21.166ZM67.8545 18.5205V26H66.2285V16.4902H67.7666L67.8545 18.5205ZM67.4678 20.8848L66.791 20.8584C66.7969 20.208 66.8936 19.6074 67.0811 19.0566C67.2686 18.5 67.5322 18.0166 67.8721 17.6064C68.2119 17.1963 68.6162 16.8799 69.085 16.6572C69.5596 16.4287 70.084 16.3145 70.6582 16.3145C71.127 16.3145 71.5488 16.3789 71.9238 16.5078C72.2988 16.6309 72.6182 16.8301 72.8818 17.1055C73.1514 17.3809 73.3564 17.7383 73.4971 18.1777C73.6377 18.6113 73.708 19.1416 73.708 19.7686V26H72.0732V19.751C72.0732 19.2529 72 18.8545 71.8535 18.5557C71.707 18.251 71.4932 18.0312 71.2119 17.8965C70.9307 17.7559 70.585 17.6855 70.1748 17.6855C69.7705 17.6855 69.4014 17.7705 69.0674 17.9404C68.7393 18.1104 68.4551 18.3447 68.2148 18.6436C67.9805 18.9424 67.7959 19.2852 67.6611 19.6719C67.5322 20.0527 67.4678 20.457 67.4678 20.8848ZM88.21 13.2031H89.8975V21.8604C89.8975 22.8213 89.6836 23.6211 89.2559 24.2598C88.8281 24.8984 88.2598 25.3789 87.5508 25.7012C86.8477 26.0176 86.083 26.1758 85.2568 26.1758C84.3896 26.1758 83.6045 26.0176 82.9014 25.7012C82.2041 25.3789 81.6504 24.8984 81.2402 24.2598C80.8359 23.6211 80.6338 22.8213 80.6338 21.8604V13.2031H82.3125V21.8604C82.3125 22.5283 82.4355 23.0791 82.6816 23.5127C82.9277 23.9463 83.2705 24.2686 83.71 24.4795C84.1553 24.6904 84.6709 24.7959 85.2568 24.7959C85.8486 24.7959 86.3643 24.6904 86.8037 24.4795C87.249 24.2686 87.5947 23.9463 87.8408 23.5127C88.0869 23.0791 88.21 22.5283 88.21 21.8604V13.2031ZM93.9404 18.3184V29.6562H92.3057V16.4902H93.7998L93.9404 18.3184ZM100.348 21.166V21.3506C100.348 22.042 100.266 22.6836 100.102 23.2754C99.9375 23.8613 99.6973 24.3711 99.3809 24.8047C99.0703 25.2383 98.6865 25.5752 98.2295 25.8154C97.7725 26.0557 97.248 26.1758 96.6562 26.1758C96.0527 26.1758 95.5195 26.0762 95.0566 25.877C94.5938 25.6777 94.2012 25.3877 93.8789 25.0068C93.5566 24.626 93.2988 24.1689 93.1055 23.6357C92.918 23.1025 92.7891 22.502 92.7188 21.834V20.8496C92.7891 20.1465 92.9209 19.5166 93.1143 18.96C93.3076 18.4033 93.5625 17.9287 93.8789 17.5361C94.2012 17.1377 94.5908 16.8359 95.0479 16.6309C95.5049 16.4199 96.0322 16.3145 96.6299 16.3145C97.2275 16.3145 97.7578 16.4316 98.2207 16.666C98.6836 16.8945 99.0732 17.2227 99.3896 17.6504C99.7061 18.0781 99.9434 18.5908 100.102 19.1885C100.266 19.7803 100.348 20.4395 100.348 21.166ZM98.7129 21.3506V21.166C98.7129 20.6914 98.6631 20.2461 98.5635 19.8301C98.4639 19.4082 98.3086 19.0391 98.0977 18.7227C97.8926 18.4004 97.6289 18.1484 97.3066 17.9668C96.9844 17.7793 96.6006 17.6855 96.1553 17.6855C95.7451 17.6855 95.3877 17.7559 95.083 17.8965C94.7842 18.0371 94.5293 18.2275 94.3184 18.4678C94.1074 18.7021 93.9346 18.9717 93.7998 19.2764C93.6709 19.5752 93.5742 19.8857 93.5098 20.208V22.4844C93.627 22.8945 93.791 23.2812 94.002 23.6445C94.2129 24.002 94.4941 24.292 94.8457 24.5146C95.1973 24.7314 95.6396 24.8398 96.1729 24.8398C96.6123 24.8398 96.9902 24.749 97.3066 24.5674C97.6289 24.3799 97.8926 24.125 98.0977 23.8027C98.3086 23.4805 98.4639 23.1113 98.5635 22.6953C98.6631 22.2734 98.7129 21.8252 98.7129 21.3506Z" fill="black"/>
</svg>
